<svg width="32" height="32" viewBox="0 0 24 24" fill="none" xmlns="http://www.w3.org/2000/svg">
  <path
    d="M21 12c0 4.556-4.03 8.25-9 8.25a9.764 9.764 0 0 1-2.555-.337A5.972 5.972 0 0 1 5.41 20.97a5.969 5.969 0 0 1-.474-.065 4.48 4.48 0 0 0 .978-2.025c.09-.457-.133-.901-.467-1.226C3.93 16.178 3 14.189 3 12c0-4.556 4.03-8.25 9-8.25s9 3.694 9 8.25Z"
    fill="white"
    stroke="#2563EB"
    stroke-width="1.8"
    stroke-linecap="round"
    stroke-linejoin="round"
  />
  <text x="11.6" y="14.6" font-family="Arial, Helvetica, sans-serif" font-weight="800" font-size="8.5" fill="#2563EB" text-anchor="middle">K</text>
  <circle cx="18.4" cy="6.6" r="2.6" fill="#22C55E" stroke="white" stroke-width="1" />
</svg>
